<svg width="24" height="24" viewBox="0 0 24 24" fill="none" xmlns="http://www.w3.org/2000/svg">
<path fill-rule="evenodd" clip-rule="evenodd" d="M12 20C16.4183 20 20 16.4183 20 12C20 7.58172 16.4183 4 12 4C7.58172 4 4 7.58172 4 12C4 16.4183 7.58172 20 12 20ZM15.0303 8.96967C15.3232 9.26256 15.3232 9.73744 15.0303 10.0303L13.0607 12L15.0303 13.9697C15.3232 14.2626 15.3232 14.7374 15.0303 15.0303C14.7374 15.3232 14.2626 15.3232 13.9697 15.0303L12 13.0607L10.0303 15.0303C9.73744 15.3232 9.26256 15.3232 8.96967 15.0303C8.67678 14.7374 8.67678 14.2626 8.96967 13.9697L10.9393 12L8.96967 10.0303C8.67678 9.73744 8.67678 9.26256 8.96967 8.96967C9.26256 8.67678 9.73744 8.67678 10.0303 8.96967L12 10.9393L13.9697 8.96967C14.2626 8.67678 14.7374 8.67678 15.0303 8.96967Z" fill="#B8B8B8"/>
</svg>
