<svg width="20" height="20" viewBox="0 0 20 20" fill="none" xmlns="http://www.w3.org/2000/svg">
<circle cx="10" cy="10" r="8" fill="#999999"/>
<path d="M10.0527 5.4502C10.852 5.45024 11.5238 5.68993 11.9961 6.10938C12.4687 6.52929 12.7383 7.12636 12.7383 7.83203C12.7383 8.32619 12.6202 8.74244 12.4023 9.0957C12.1848 9.44839 11.8689 9.73583 11.4756 9.97559H11.4746C11.1975 10.1418 10.9895 10.3196 10.8359 10.5283C10.7209 10.6848 10.6356 10.8608 10.5762 11.0654L10.5244 11.2793C10.4576 11.6302 10.1758 11.9267 9.80762 11.9268C9.43476 11.9268 9.12095 11.6202 9.16211 11.2422L9.18945 11.0371C9.26137 10.5748 9.39501 10.2279 9.58594 9.94824C9.80393 9.62902 10.094 9.40111 10.4395 9.18652L10.6211 9.06445C11.0292 8.76637 11.3144 8.37391 11.3145 7.83203C11.3145 7.46307 11.1741 7.16708 10.9482 6.96289C10.7218 6.75825 10.4063 6.64361 10.0527 6.64355C9.64044 6.64355 9.24211 6.80605 8.99707 7.1543L8.90234 7.31445C8.74407 7.63444 8.46104 7.94229 8.08105 7.94238C7.87912 7.94238 7.69322 7.85777 7.57129 7.72266C7.44874 7.58669 7.39081 7.39932 7.44824 7.2002L7.51758 6.99316C7.90716 5.98807 8.89657 5.4502 10.0527 5.4502Z" fill="white" stroke="white" stroke-width="0.1"/>
<path d="M8.98368 13.8999C8.97101 14.3941 9.38925 14.7997 9.88354 14.7997C10.3652 14.7997 10.7834 14.3941 10.7834 13.8999C10.7834 13.4056 10.3652 13 9.88354 13C9.38925 13 8.97101 13.4056 8.98368 13.8999Z" fill="white"/>
</svg>
